<svg xmlns="http://www.w3.org/2000/svg" width="17.322" height="19.246" viewBox="0 0 17.322 19.246"><path d="M6.811,3.259h7.7V1.333h1.924V3.257H17.4a1.924,1.924,0,0,1,1.924,1.924V18.655A1.924,1.924,0,0,1,17.4,20.579H3.924A1.924,1.924,0,0,1,2,18.655V5.183A1.924,1.924,0,0,1,3.924,3.259h.963V1.333H6.811V3.257ZM3.924,7.107V18.656H17.4V7.107ZM5.849,9.995H7.773v1.924H5.85V9.995Zm3.85,0h1.924v1.924H9.7Zm3.85,0h1.924v1.924H13.549Zm0,3.85h1.924v1.924H13.549Zm-3.85,0h1.924v1.924H9.7Zm-3.85,0H7.773v1.924H5.85V13.845Z" transform="translate(-2 -1.333)" fill="#5a7292" fill-rule="evenodd"/></svg>