<svg xmlns="http://www.w3.org/2000/svg" width="55" height="54" viewBox="0 0 55 54"><g transform="translate(0.42 -0.409)"><rect width="55" height="54" rx="3" transform="translate(-0.42 0.409)" fill="#50abf1"/><g transform="translate(12.58 15.409)"><path d="M29.752,50.862a12.716,12.716,0,0,1-3.514.963,6.065,6.065,0,0,0,2.683-3.371,12.189,12.189,0,0,1-3.868,1.476A6.1,6.1,0,0,0,14.5,54.1a6.281,6.281,0,0,0,.141,1.391,17.264,17.264,0,0,1-12.572-6.38,6.1,6.1,0,0,0,1.874,8.152,6.024,6.024,0,0,1-2.756-.751v.067a6.127,6.127,0,0,0,4.887,5.993,6.087,6.087,0,0,1-1.6.2,5.393,5.393,0,0,1-1.155-.1,6.157,6.157,0,0,0,5.7,4.249,12.255,12.255,0,0,1-7.562,2.6A11.425,11.425,0,0,1,0,69.436a17.171,17.171,0,0,0,9.357,2.737c11.224,0,17.36-9.3,17.36-17.356,0-.27-.009-.53-.022-.788A12.168,12.168,0,0,0,29.752,50.862Z" transform="translate(0 -48)" fill="#fff"/></g></g></svg>