<svg xmlns="http://www.w3.org/2000/svg" width="54" height="54" viewBox="0 0 54 54"><g transform="translate(-0.16 -0.409)"><rect width="54" height="54" rx="3" transform="translate(0.16 0.409)" fill="#0077b5"/><g transform="translate(14.16 15.409)"><rect width="5.387" height="16.176" transform="translate(0.31 7.786)" fill="#fff"/><path d="M166.3,141.184a5.8,5.8,0,0,0-4.489-1.853,6.469,6.469,0,0,0-1.869.253,4.24,4.24,0,0,0-1.42.71,6.082,6.082,0,0,0-1.559,1.712v-2.3H151.6l.017.784q.017.784.016,4.832t-.033,10.561h5.37v-9.027a3.942,3.942,0,0,1,.179-1.322,3.468,3.468,0,0,1,1.037-1.4,2.643,2.643,0,0,1,1.722-.563,2.322,2.322,0,0,1,2.065.971,4.723,4.723,0,0,1,.661,2.685v8.651H168v-9.271A7.773,7.773,0,0,0,166.3,141.184Z" transform="translate(-142.93 -131.92)" fill="#fff"/><path d="M3.036,9.708a3.073,3.073,0,0,0-2.2.792A2.628,2.628,0,0,0,0,12.5a2.675,2.675,0,0,0,.816,1.991,2.946,2.946,0,0,0,2.155.8H3a3.075,3.075,0,0,0,2.212-.8A2.584,2.584,0,0,0,6.04,12.5a2.723,2.723,0,0,0-.832-2A2.985,2.985,0,0,0,3.036,9.708Z" transform="translate(0 -9.708)" fill="#fff"/></g></g></svg>