<svg xmlns="http://www.w3.org/2000/svg" width="53" height="53" viewBox="0 0 53 53"><g transform="translate(-534 -834)"><rect width="53" height="53" rx="3" transform="translate(534 834)" fill="#deb309"/><path d="M18.309,1.19a9.584,9.584,0,0,1,8.9,5.732c.794,1.79.6,4.829.449,7.271l0,.09c-.018.27-.033.517-.045.765a1.158,1.158,0,0,0,.6.135,4.2,4.2,0,0,0,1.549-.452,1.494,1.494,0,0,1,.7-.156,2.068,2.068,0,0,1,.764.135,1.425,1.425,0,0,1,1.1,1.257q.033,1.01-1.82,1.752c-.134.044-.314.112-.516.178-.675.2-1.708.54-2,1.215a1.571,1.571,0,0,0,.18,1.3l.022.022c.09.2,2.289,5.213,7.187,6.021a.748.748,0,0,1,.63.764.909.909,0,0,1-.068.338c-.36.853-1.909,1.482-4.719,1.906a4.075,4.075,0,0,0-.246.855,6.152,6.152,0,0,1-.2.83.786.786,0,0,1-.833.608h-.045a4.785,4.785,0,0,1-.807-.111,9.051,9.051,0,0,0-1.909-.2,7.242,7.242,0,0,0-1.369.111,6.737,6.737,0,0,0-2.585,1.326,8.181,8.181,0,0,1-4.941,1.932c-.09,0-.178-.022-.27-.022h-.223a7.98,7.98,0,0,1-4.918-1.932A6.638,6.638,0,0,0,10.3,31.533a9.934,9.934,0,0,0-1.392-.111A9.5,9.5,0,0,0,7,31.645a4.319,4.319,0,0,1-.81.111.837.837,0,0,1-.874-.63c-.091-.288-.135-.584-.2-.85a4.018,4.018,0,0,0-.249-.855C1.991,29.088.443,28.458.084,27.582A.9.9,0,0,1,0,27.244a.744.744,0,0,1,.63-.764c4.9-.81,7.095-5.819,7.187-6.03l.024-.044a1.5,1.5,0,0,0,.178-1.3c-.292-.651-1.326-.987-2-1.214A3.349,3.349,0,0,1,5.5,17.71c-1.66-.652-1.885-1.4-1.8-1.909a1.774,1.774,0,0,1,1.752-1.19,1.534,1.534,0,0,1,.575.111,4.1,4.1,0,0,0,1.656.45,1.415,1.415,0,0,0,.7-.158l-.069-.853c-.147-2.439-.338-5.476.461-7.255a9.43,9.43,0,0,1,8.81-5.695l.628-.022h.09Z" transform="translate(543 842.811)" fill="#fff"/></g></svg>