<svg xmlns="http://www.w3.org/2000/svg" width="53" height="53" viewBox="0 0 53 53"><g transform="translate(-650 -834)"><rect width="53" height="53" rx="3" transform="translate(650 834)" fill="#1a1a1a"/><path d="M16.028.025C17.662,0,19.284.012,20.905,0a7.769,7.769,0,0,0,2.183,5.2,8.8,8.8,0,0,0,5.289,2.233v5.027a13.351,13.351,0,0,1-5.239-1.21,15.411,15.411,0,0,1-2.021-1.16c-.012,3.642.012,7.284-.025,10.914a9.527,9.527,0,0,1-1.684,4.915,9.293,9.293,0,0,1-7.372,4,9.1,9.1,0,0,1-5.089-1.285,9.406,9.406,0,0,1-4.553-7.122c-.025-.624-.037-1.247-.012-1.859a9.39,9.39,0,0,1,10.889-8.332c.025,1.846-.05,3.692-.05,5.538a4.28,4.28,0,0,0-5.463,2.644,4.948,4.948,0,0,0-.175,2.008,4.245,4.245,0,0,0,4.366,3.58A4.191,4.191,0,0,0,15.4,23.088a2.878,2.878,0,0,0,.511-1.322c.125-2.233.075-4.453.087-6.686.012-5.027-.012-10.041.025-15.055Z" transform="translate(660.631 846)" fill="#fff"/></g></svg>