<svg xmlns="http://www.w3.org/2000/svg" width="54" height="54" viewBox="0 0 54 54"><g transform="translate(0 -0.409)"><rect width="54" height="54" rx="3" transform="translate(0 0.409)" fill="#4867aa"/><g transform="translate(19 12.409)"><path d="M37.586.006,33.721,0c-4.343,0-7.149,2.879-7.149,7.336v3.382H22.685a.608.608,0,0,0-.608.608v4.9a.608.608,0,0,0,.608.608h3.887V29.2a.608.608,0,0,0,.608.608H32.25a.608.608,0,0,0,.608-.608V16.835H37.4a.608.608,0,0,0,.608-.608l0-4.9a.608.608,0,0,0-.608-.608H32.858V7.851c0-1.378.328-2.078,2.124-2.078h2.6a.608.608,0,0,0,.608-.608V.614A.608.608,0,0,0,37.586.006Z" transform="translate(-22.077)" fill="#fff"/></g></g></svg>