<svg xmlns="http://www.w3.org/2000/svg" width="53" height="53" viewBox="0 0 53 53"><g transform="translate(-534 -834)"><rect width="53" height="53" rx="3" transform="translate(534 834)" fill="#f87529"/><path d="M18.892,15.991a3.081,3.081,0,1,0-3.082,3.068A3.078,3.078,0,0,0,18.892,15.991ZM23.47.022H7.83A7.806,7.806,0,0,0,.016,7.8V9.97h11.5a7.422,7.422,0,0,1,8.591,0H31.283V7.8A7.805,7.805,0,0,0,23.47.022Zm3.164,7.4a.868.868,0,0,1-.868.864H23.083a.869.869,0,0,1-.868-.864V4.75a.868.868,0,0,1,.868-.864h2.683a.869.869,0,0,1,.868.864Zm-3.4,8.569a7.422,7.422,0,0,1-14.845,0,7.319,7.319,0,0,1,.705-3.139H.016V23.5A7.805,7.805,0,0,0,7.83,31.28H23.47a7.806,7.806,0,0,0,7.814-7.78V12.851H22.527a7.322,7.322,0,0,1,.705,3.139Z" transform="translate(544.984 844.978)" fill="#f6fbff"/></g></svg>