<svg xmlns="http://www.w3.org/2000/svg" width="53" height="53" viewBox="0 0 53 53"><g transform="translate(-0.137 -0.409)"><rect width="53" height="53" rx="3" transform="translate(0.137 0.409)" fill="#19bf39"/><path d="M13.525,0h0A13.515,13.515,0,0,0,2.571,21.45L.89,26.473l5.2-1.662A13.523,13.523,0,1,0,13.525,0Zm7.869,19.1A3.816,3.816,0,0,1,18.739,21c-.707.15-1.623.27-4.733-1.018a16.941,16.941,0,0,1-6.733-5.95A7.723,7.723,0,0,1,5.668,9.961,4.317,4.317,0,0,1,7.05,6.67a1.965,1.965,0,0,1,1.383-.485c.168,0,.318.008.453.015.4.016.6.041.859.668.326.786,1.121,2.726,1.217,2.926a.811.811,0,0,1,.058.732,2.337,2.337,0,0,1-.438.621c-.2.23-.388.406-.588.653-.183.215-.389.445-.16.841a12,12,0,0,0,2.195,2.726A9.943,9.943,0,0,0,15.2,17.322a.855.855,0,0,0,.953-.15,16.363,16.363,0,0,0,1.056-1.4.755.755,0,0,1,.97-.293c.365.127,2.3,1.082,2.7,1.279s.66.293.756.461A3.367,3.367,0,0,1,21.4,19.1Z" transform="translate(13.4 13.839)" fill="#fff"/></g></svg>