<svg xmlns="http://www.w3.org/2000/svg" width="220.142" height="33.65" viewBox="0 0 220.142 33.65"><path d="M23.7,46.478a162.836,162.836,0,0,1-16.586.948,6.968,6.968,0,0,1-5.165-1.948A7.012,7.012,0,0,1,0,40.316V28.954a7.556,7.556,0,0,1,2.013-5.581A7.5,7.5,0,0,1,7.584,21.36H17.06a7.5,7.5,0,0,1,5.571,2.013,7.6,7.6,0,0,1,2.013,5.568v8.766H8.295v1.9a1.623,1.623,0,0,0,1.659,1.659q4.688,0,13.742-.711Zm-13.509-19.2a1.675,1.675,0,0,0-1.9,1.9v2.6h8.055v-2.6a1.675,1.675,0,0,0-1.9-1.9Z" transform="translate(0 -14.425)" fill="#fff"/><path d="M98.5,22.82h8.766l-9.48,25.118H88.3L78.83,22.82H87.6l5.451,17.06Z" transform="translate(-53.238 -15.411)" fill="#fff"/><path d="M193.019,46.5a162.786,162.786,0,0,1-16.586.948,6.7,6.7,0,0,1-7.113-7.113V28.971a7.531,7.531,0,0,1,2.016-5.568A7.5,7.5,0,0,1,176.9,21.39h9.48a7.491,7.491,0,0,1,5.568,2.013,7.612,7.612,0,0,1,2.013,5.568v8.766H177.618v1.9a1.623,1.623,0,0,0,1.662,1.652q4.688,0,13.742-.711ZM179.514,27.3a1.678,1.678,0,0,0-1.9,1.9v2.6h8.058V29.2a1.676,1.676,0,0,0-1.9-1.9Z" transform="translate(-114.35 -14.446)" fill="#fff"/><path d="M272.359,28.23a20.206,20.206,0,0,0-5.688.948V46.952H258.38V21.834h7.344l.474,2.37a17.021,17.021,0,0,1,4.571-2.159,14.544,14.544,0,0,1,3.957-.685h2.133a6.7,6.7,0,0,1,7.113,7.113V46.959h-8.295V29.889a1.623,1.623,0,0,0-1.659-1.659Z" transform="translate(-174.497 -14.425)" fill="#fff"/><path d="M364.947,36.106a88.119,88.119,0,0,1-9.006.474,6.7,6.7,0,0,1-7.113-7.113V17.383H346v-6.4h2.841l.938-5.688h7.347v5.688h5.925v6.4h-5.925v10.9a1.623,1.623,0,0,0,1.659,1.659h6.168Z" transform="translate(-233.671 -3.579)" fill="#fff"/><path d="M410.657,41.289Q420.28,42,425.825,42a1.623,1.623,0,0,0,1.659-1.659V38.682H417.293a6.7,6.7,0,0,1-7.113-7.113V29.913a6.7,6.7,0,0,1,7.113-7.113h16.112v6.168H420.137a1.659,1.659,0,0,0,0,3.318h8.532a6.687,6.687,0,0,1,7.1,7.107v1.9a6.7,6.7,0,0,1-7.113,7.113q-8.392,0-18.012-.948Z" transform="translate(-277.015 -15.398)" fill="#fff"/><path d="M517.531,33.65q-7.912,0-17.531-.948V26.3q10.47.711,15.638.711a2.208,2.208,0,0,0,2.37-2.37v-2.37a2.514,2.514,0,0,0-2.844-2.844H501.409V0h22.748V6.636h-14.22V12.8h7.594q4.646,0,6.818,2.107t2.182,6.422v3.311q0,4.646-2.182,6.818T517.531,33.65Z" transform="translate(-337.675)" fill="#fbb03b"/><path d="M605.091,26.54H587.56V19.9L598.929,0h9.48L597.046,19.9H605.1V12.8h8.529V19.9h3.318V26.54H613.62v6.636h-8.529Z" transform="translate(-396.808)" fill="#fbb03b"/></svg>