<svg xmlns="http://www.w3.org/2000/svg" width="14" height="15.617" viewBox="0 0 14 15.617"><g transform="translate(-2.872 -1.125)"><path d="M7.21,2.677q-1.428.384-2.837.835a.473.473,0,0,0-.328.381A11.566,11.566,0,0,0,6.3,12.861,10.609,10.609,0,0,0,8.585,15.04a6.25,6.25,0,0,0,.892.521,2.256,2.256,0,0,0,.293.114.759.759,0,0,0,.1.025.6.6,0,0,0,.1-.024,2.447,2.447,0,0,0,.293-.116,6.224,6.224,0,0,0,.892-.521,10.616,10.616,0,0,0,2.287-2.179A11.563,11.563,0,0,0,15.7,3.893a.473.473,0,0,0-.328-.381c-.652-.208-1.751-.547-2.837-.835a13.379,13.379,0,0,0-2.662-.511A13.363,13.363,0,0,0,7.21,2.677ZM6.943,1.672a13.935,13.935,0,0,1,2.929-.547,13.97,13.97,0,0,1,2.929.546q1.453.39,2.886.849a1.515,1.515,0,0,1,1.044,1.233,12.613,12.613,0,0,1-2.464,9.75A11.651,11.651,0,0,1,11.749,15.9a7.228,7.228,0,0,1-1.049.61,2.163,2.163,0,0,1-.829.234,2.163,2.163,0,0,1-.829-.234,7.192,7.192,0,0,1-1.049-.61A11.652,11.652,0,0,1,5.478,13.5a12.607,12.607,0,0,1-2.465-9.75A1.514,1.514,0,0,1,4.057,2.52q1.433-.458,2.886-.849Z" transform="translate(0 0)" fill="#6c7a89" fill-rule="evenodd"/><path d="M18,5.063a22.82,22.82,0,0,1,4.429,1.064.979.979,0,0,1,.683.8c.847,6.688-4.3,9.841-5.112,9.841Z" transform="translate(-8.128 -2.116)" fill="#6c7a89"/></g></svg>