<svg xmlns="http://www.w3.org/2000/svg" width="20.044" height="20.044" viewBox="0 0 20.044 20.044"><path d="M6.279,10.022a3.743,3.743,0,0,1,3.758-3.758A3.743,3.743,0,0,1,13.8,10.022a3.743,3.743,0,0,1-3.758,3.758,3.743,3.743,0,0,1-3.758-3.758Zm13.78-1.253v8.769a2.506,2.506,0,0,1-2.506,2.506H2.52A2.415,2.415,0,0,1,.748,19.31a2.409,2.409,0,0,1-.733-1.772V2.506A2.415,2.415,0,0,1,.749.734,2.411,2.411,0,0,1,2.521,0H17.553a2.415,2.415,0,0,1,1.772.734,2.411,2.411,0,0,1,.734,1.772V6.264H15.048a6.409,6.409,0,0,0-2.192-1.83,6.22,6.22,0,0,0-5.638,0,6.41,6.41,0,0,0-2.192,1.83H.015V8.769H3.891a6.777,6.777,0,0,0-.118,1.253,6.111,6.111,0,0,0,.842,3.142,6.267,6.267,0,0,0,2.281,2.281,6.285,6.285,0,0,0,6.283,0,6.255,6.255,0,0,0,2.281-2.281,6.114,6.114,0,0,0,.842-3.142,6.777,6.777,0,0,0-.118-1.253h3.876Z" transform="translate(-0.015)" fill="#65686b"/></svg>