<svg xmlns="http://www.w3.org/2000/svg" width="24.084" height="20.07" viewBox="0 0 24.084 20.07"><path d="M24.084,5.348a6.473,6.473,0,0,1-.9,1.289,6.639,6.639,0,0,1-1.624,1.369q.027.215.04.4a14.614,14.614,0,0,1-1.034,5.6A14.741,14.741,0,0,1,14.7,21.3a15.425,15.425,0,0,1-9.183,1.678A10.544,10.544,0,0,1,0,20.84a10.282,10.282,0,0,0,7.357-2.121,5.068,5.068,0,0,1-4.672-3.463,3.142,3.142,0,0,0,1.047.054,9.741,9.741,0,0,0,1.181-.161,5.538,5.538,0,0,1-3.356-2.6,5.614,5.614,0,0,1-.564-2.47,4.717,4.717,0,0,0,2.228.671A5.757,5.757,0,0,1,1.034,7.186a6.588,6.588,0,0,1,.6-3.209,16.875,16.875,0,0,0,5.733,4.3,11.875,11.875,0,0,0,4.5.94,6.01,6.01,0,0,1,.6-3.813,5.194,5.194,0,0,1,3.1-2.255,4.577,4.577,0,0,1,4.591,1.423,8.172,8.172,0,0,0,3.2-1.181,4.848,4.848,0,0,1-2.2,2.846,13.961,13.961,0,0,0,2.926-.886Z" transform="translate(0 -2.999)" fill="#65686b"/></svg>