<?xml version="1.0" standalone="no"?>
<!DOCTYPE svg PUBLIC "-//W3C//DTD SVG 1.1//EN" "http://www.w3.org/Graphics/SVG/1.1/DTD/svg11.dtd" >
<svg xmlns="http://www.w3.org/2000/svg">
<metadata>Generated by IcoMoon</metadata>
<defs>
<font id="icomoon" horiz-adv-x="1024">
<font-face units-per-em="1024" ascent="960" descent="-64" />
<missing-glyph horiz-adv-x="1024" />
<glyph unicode="&#x20;" horiz-adv-x="512" d="" />
<glyph unicode="&#xe900;" glyph-name="check-circle" d="M511.989 960c-282.751 0-511.966-229.215-511.966-511.966s229.215-511.966 511.966-511.966c282.751 0 511.966 229.215 511.966 511.966v0c-0.352 282.608-229.356 511.613-511.931 511.966h-0.034zM511.989 38.462c-226.188 0-409.549 183.362-409.549 409.549s183.362 409.549 409.549 409.549c226.188 0 409.549-183.362 409.549-409.549v0c-0.274-226.077-183.472-409.275-409.523-409.549h-0.027zM409.549 366.763l-117.729 117.5-72.272-72.502 190.070-189.68 343.361 343.361-72.433 72.41z" />
<glyph unicode="&#xe901;" glyph-name="calendar" horiz-adv-x="922" d="M255.973 857.526h409.685v102.474h102.368v-102.368h51.344c56.536 0 102.368-45.832 102.368-102.368v0-716.896c0-56.536-45.832-102.368-102.368-102.368v0h-717.002c-56.536 0-102.368 45.832-102.368 102.368v0 716.789c0 56.536 45.832 102.368 102.368 102.368h51.237v102.474h102.368v-102.368zM102.368 652.789v-614.474h717.002v614.474zM204.789 499.131h102.368v-102.368h-102.315v102.368zM409.632 499.131h102.368v-102.368h-102.315zM614.474 499.131h102.368v-102.368h-102.368zM614.474 294.288h102.368v-102.368h-102.368zM409.632 294.288h102.368v-102.368h-102.315zM204.789 294.288h102.368v-102.368h-102.315v102.368z" />
<glyph unicode="&#xe902;" d="M56.889 960h910.222c31.419 0 56.889-25.47 56.889-56.889v-910.222c0-31.419-25.47-56.889-56.889-56.889h-910.222c-31.419 0-56.889 25.47-56.889 56.889v910.222c0 31.419 25.47 56.889 56.889 56.889z" />
<glyph unicode="&#xe903;" d="M654.393 732.331l-73.292 0.114c-82.356 0-135.566-54.594-135.566-139.112v-64.133h-73.709c-6.368 0-11.529-5.162-11.529-11.529v0-92.919c0-6.368 5.162-11.529 11.529-11.529v0h73.709v-234.496c0-6.368 5.162-11.529 11.529-11.529h96.142c6.368 0 11.529 5.162 11.529 11.529v0 234.477h86.13c6.368 0 11.529 5.162 11.529 11.529v0 92.919c0 6.368-5.162 11.529-11.529 11.529h-86.13v54.386c0 26.131 6.22 39.405 40.277 39.405h49.304c6.368 0 11.529 5.162 11.529 11.529v0 86.3c0 0 0 0 0 0 0 6.341-5.119 11.486-11.45 11.529h-0.004z" />
<glyph unicode="&#xe904;" horiz-adv-x="1043" d="M56.889 960h929.185c31.419 0 56.889-25.47 56.889-56.889v-910.222c0-31.419-25.47-56.889-56.889-56.889h-929.185c-31.419 0-56.889 25.47-56.889 56.889v910.222c0 31.419 25.47 56.889 56.889 56.889z" />
<glyph unicode="&#xe905;" horiz-adv-x="1043" d="M810.705 621.284c-19.387-8.699-41.88-15.117-65.435-18.136l-1.201-0.126c23.975 14.399 41.984 36.64 50.647 63.111l0.23 0.813c-21.114-12.739-45.689-22.451-71.867-27.739l-1.482-0.25c-21.162 22.561-51.161 36.617-84.442 36.617-63.885 0-115.674-51.789-115.674-115.674 0-0.006 0-0.013 0-0.019v0.001c-0.004-0.372-0.007-0.812-0.007-1.252 0-8.901 0.976-17.574 2.828-25.918l-0.148 0.792c-96.406 4.871-181.207 50.74-237.932 120.387l-0.471 0.597c-9.956-16.732-15.841-36.893-15.841-58.428 0-39.915 20.217-75.108 50.969-95.898l0.409-0.26c-19.258 0.529-37.188 5.744-52.836 14.538l0.574-0.297v-1.271c0.068-55.786 39.442-102.357 91.912-113.51l0.76-0.135c-8.809-2.411-18.923-3.797-29.361-3.797-0.344 0-0.688 0.002-1.032 0.005h0.053c-0.649-0.015-1.414-0.023-2.181-0.023-6.978 0-13.792 0.699-20.377 2.030l0.656-0.111c15.394-46.26 57.72-79.269 107.938-80.571l0.151-0.003c-39.034-30.74-88.912-49.304-143.125-49.304-0.096 0-0.192 0-0.288 0h0.015c-0.363-0.002-0.793-0.003-1.222-0.003-9.308 0-18.478 0.587-27.476 1.726l1.070-0.11c49.829-32.545 110.84-51.903 176.371-51.903 0.374 0 0.749 0.001 1.123 0.002h-0.058c212.84 0 329.197 176.356 329.197 329.121 0 5.12-0.171 10.050-0.417 14.943 22.901 16.519 42.151 36.434 57.445 59.225l0.525 0.83z" />
<glyph unicode="&#xe906;" d="M56.889 960h910.222c31.419 0 56.889-25.47 56.889-56.889v-910.222c0-31.419-25.47-56.889-56.889-56.889h-910.222c-31.419 0-56.889 25.47-56.889 56.889v910.222c0 31.419 25.47 56.889 56.889 56.889z" />
<glyph unicode="&#xe907;" d="M271.36 527.91h102.153v-306.745h-102.153v306.745z" />
<glyph unicode="&#xe908;" d="M708.646 499.883c-20.148 21.696-48.83 35.228-80.673 35.228-1.565 0-3.123-0.033-4.673-0.097l0.221 0.007c-0.428 0.005-0.934 0.008-1.441 0.008-12.113 0-23.816-1.756-34.869-5.026l0.868 0.22c-10.306-2.964-19.282-7.578-27.117-13.604l0.189 0.14c-11.825-8.879-21.677-19.655-29.278-31.968l-0.285-0.497v43.615h-101.698l0.322-14.867q0.322-14.867 0.303-91.629t-0.626-200.268h101.831v171.179c-0.030 0.79-0.047 1.718-0.047 2.649 0 8.006 1.259 15.718 3.589 22.949l-0.147-0.529c4.374 10.658 11.089 19.584 19.543 26.453l0.121 0.095c8.435 6.673 19.226 10.705 30.959 10.705 0.596 0 1.19-0.010 1.781-0.031l-0.086 0.002c0.976 0.077 2.113 0.121 3.261 0.121 14.757 0 27.818-7.259 35.808-18.402l0.090-0.132c7.961-13.118 12.673-28.973 12.673-45.929 0-1.754-0.050-3.496-0.15-5.225l0.011 0.239v-164.049h101.755v175.806c0.233 3.106 0.366 6.727 0.366 10.379 0 35.139-12.296 67.405-32.819 92.733l0.216-0.275z" />
<glyph unicode="&#xe909;" d="M323.053 675.556c-0.778 0.037-1.689 0.058-2.605 0.058-15.076 0-28.815-5.725-39.161-15.12l0.048 0.043c-9.779-9.124-15.874-22.086-15.874-36.472 0-0.511 0.008-1.021 0.023-1.529l-0.002 0.074c-0.010-0.377-0.016-0.82-0.016-1.265 0-14.319 5.933-27.253 15.475-36.476l0.014-0.014c9.98-9.43 23.48-15.228 38.334-15.228 0.89 0 1.776 0.021 2.656 0.062l-0.124-0.005h0.55c0.791-0.038 1.717-0.060 2.649-0.060 15.161 0 28.971 5.786 39.341 15.271l-0.044-0.040c9.689 8.979 15.734 21.772 15.734 35.977 0 0.625-0.012 1.248-0.035 1.868l0.003-0.089c0.004 0.228 0.006 0.497 0.006 0.766 0 14.584-6.046 27.755-15.768 37.145l-0.015 0.014c-10.066 9.348-23.599 15.084-38.472 15.084-0.955 0-1.905-0.024-2.848-0.070l0.133 0.005z" />
<glyph unicode="&#xe90a;" d="M57.962 960h908.075c32.012 0 57.962-25.951 57.962-57.962v-908.075c0-32.012-25.951-57.962-57.962-57.962h-908.075c-32.012 0-57.962 25.951-57.962 57.962v908.075c0 32.012 25.951 57.962 57.962 57.962z" />
<glyph unicode="&#xe90b;" d="M517.564 700.522v0c-0.079 0-0.171 0-0.264 0-144.213 0-261.12-116.907-261.12-261.12 0-57.61 18.657-110.863 50.258-154.046l-0.514 0.736-32.478-97.048 100.468 32.111c40.499-27.059 90.304-43.182 143.875-43.182 144.298 0 261.275 116.977 261.275 261.275s-116.977 261.275-261.275 261.275c-0.079 0-0.158 0-0.238 0h0.013zM669.599 331.496c-10.712-18.994-29.098-32.587-50.841-36.639l-0.456-0.071c-13.66-2.898-31.358-5.217-91.445 19.669-53.669 26.665-97.64 65.787-129.328 113.737l-0.758 1.221c-17.041 21.668-28.279 48.635-30.967 78.073l-0.043 0.582c-0.022 0.711-0.034 1.548-0.034 2.387 0 24.158 10.27 45.917 26.683 61.149l0.053 0.048c6.644 5.843 15.414 9.409 25.018 9.409 0.599 0 1.195-0.014 1.787-0.041l-0.084 0.003c3.246 0 6.144-0.155 8.752-0.29 7.728-0.309 11.592-0.792 16.597-12.906 6.299-15.186 21.659-52.668 23.513-56.533 1.445-2.327 2.302-5.151 2.302-8.175 0-2.153-0.434-4.204-1.219-6.071l0.038 0.103c-2.266-4.621-5.096-8.58-8.468-12.004l0.006 0.006c-3.864-4.444-7.496-7.844-11.361-12.616-3.536-4.154-7.516-8.598-3.091-16.249 11.98-20.167 26.043-37.495 42.26-52.532l0.149-0.136c17.248-15.82 37.585-28.608 59.958-37.323l1.308-0.449c2.074-1.008 4.511-1.597 7.086-1.597 4.388 0 8.377 1.711 11.335 4.502l-0.008-0.008c6.756 7.973 13.461 16.79 19.698 25.951l0.705 1.098c2.598 4.262 7.22 7.065 12.498 7.065 2.268 0 4.416-0.518 6.331-1.442l-0.087 0.038c7.052-2.454 44.438-20.905 52.166-24.711s12.752-5.661 14.606-8.907c0.536-3.136 0.842-6.749 0.842-10.433 0-9.37-1.981-18.276-5.547-26.325l0.164 0.415z" />
<glyph unicode="&#xe90c;" d="M57.962 960h908.075c32.012 0 57.962-25.951 57.962-57.962v-908.075c0-32.012-25.951-57.962-57.962-57.962h-908.075c-32.012 0-57.962 25.951-57.962 57.962v908.075c0 32.012 25.951 57.962 57.962 57.962z" />
<glyph unicode="&#xe90d;" d="M577.227 438.939c0 0.075 0.001 0.163 0.001 0.251 0 32.876-26.651 59.527-59.527 59.527s-59.527-26.651-59.527-59.527c0-32.869 26.64-59.516 59.506-59.527h0.001c0.023 0 0.050 0 0.078 0 32.776 0 59.359 26.515 59.469 59.266v0.011zM665.677 747.472h-302.177c-0.046 0-0.101 0-0.156 0-83.104 0-150.509-67.215-150.817-150.247v-41.955h222.189c23.071 16.545 51.874 26.457 82.992 26.457s59.921-9.912 83.424-26.751l-0.432 0.294h215.929v41.926c-0.297 83.059-67.697 150.277-150.798 150.277-0.055 0-0.109 0-0.164 0h0.009zM726.808 604.498c-0.044-9.229-7.535-16.693-16.77-16.693 0 0 0 0 0 0h-51.838c-9.231 0.011-16.716 7.469-16.77 16.688v51.63c0.044 9.229 7.535 16.693 16.77 16.693 0 0 0 0 0 0h51.838c9.231-0.011 16.716-7.469 16.77-16.688v-0.005zM661.118 438.939c0-79.202-64.206-143.408-143.408-143.408s-143.408 64.206-143.408 143.408v0c0 0.028 0 0.061 0 0.094 0 22.002 5.025 42.83 13.989 61.399l-0.368-0.845h-175.394v-205.727c0.275-83.076 67.684-150.316 150.798-150.316 0.061 0 0.123 0 0.184 0h302.167c0.046 0 0.101 0 0.155 0 83.118 0 150.531 67.237 150.817 150.288v205.774h-169.192c8.597-17.728 13.621-38.561 13.621-60.567 0-0.028 0-0.057 0-0.085v0.004z" />
<glyph unicode="&#xe90e;" d="M57.962 960h908.075c32.012 0 57.962-25.951 57.962-57.962v-908.075c0-32.012-25.951-57.962-57.962-57.962h-908.075c-32.012 0-57.962 25.951-57.962 57.962v908.075c0 32.012 25.951 57.962 57.962 57.962z" />
<glyph unicode="&#xe90f;" d="M527.63 766.773c0.711 0.010 1.551 0.015 2.392 0.015 75.344 0 140.178-44.999 169.093-109.588l0.47-1.174c15.341-34.584 11.592-93.3 8.675-140.481v-1.739c-0.348-5.217-0.638-9.989-0.869-14.78 3.049-1.658 6.676-2.633 10.531-2.633 0.373 0 0.744 0.009 1.113 0.027l-0.052-0.002c11.089 1.033 21.244 4.146 30.372 8.946l-0.444-0.213c3.748 1.905 8.172 3.022 12.858 3.022 0.235 0 0.468-0.003 0.702-0.008l-0.035 0.001c0.164 0.002 0.358 0.004 0.551 0.004 5.108 0 9.992-0.958 14.482-2.705l-0.272 0.093c11.495-2.706 20.111-12.348 21.244-24.175l0.009-0.111q0.638-19.514-35.164-33.85c-2.589-0.85-6.067-2.164-9.97-3.439-13.042-3.864-33-10.433-38.642-23.475-0.823-2.626-1.296-5.646-1.296-8.776 0-6.067 1.78-11.718 4.846-16.46l-0.072 0.119 0.425-0.425c1.739-3.864 44.225-100.719 138.858-116.33 6.945-1.136 12.18-7.093 12.18-14.272 0-0.172-0.003-0.343-0.009-0.514l0.001 0.025c-0.019-2.359-0.5-4.601-1.357-6.646l0.043 0.116c-6.955-16.481-36.883-28.633-91.175-36.825-2.010-4.737-3.66-10.282-4.683-16.044l-0.070-0.475c-1.062-6.239-2.404-11.638-4.099-16.877l0.235 0.841c-1.596-6.809-7.617-11.802-14.804-11.802-0.454 0-0.904 0.020-1.347 0.059l0.058-0.004h-0.869c-5.698 0.3-11.040 1.066-16.215 2.266l0.624-0.122c-10.989 2.457-23.61 3.864-36.56 3.864-0.114 0-0.227 0-0.341 0h0.018c-0.585 0.009-1.276 0.014-1.968 0.014-8.652 0-17.121-0.785-25.339-2.289l0.857 0.13c-19.242-5.148-35.972-13.991-50.156-25.79l0.211 0.171c-25.693-21.878-58.821-35.722-95.131-37.316l-0.333-0.012c-1.739 0-3.439 0.425-5.217 0.425h-4.309c-36.532 1.389-69.573 15.282-95.213 37.491l0.193-0.164c-13.899 11.67-30.579 20.524-48.874 25.434l-0.897 0.205c-8.019 1.277-17.327 2.054-26.8 2.144l-0.095 0.001c-13.17-0.204-25.864-1.763-38.094-4.544l1.23 0.235c-4.608-1.135-9.974-1.903-15.478-2.139l-0.172-0.006c-0.361-0.029-0.781-0.045-1.206-0.045-7.527 0-13.852 5.142-15.656 12.105l-0.025 0.112c-1.758 5.564-2.608 11.283-3.864 16.423-1.103 6.235-2.772 11.779-5.003 17.027l0.192-0.508c-55.566 6.434-85.475 18.606-92.411 35.531-0.917 1.909-1.503 4.138-1.621 6.489l-0.002 0.041c-0.007 0.165-0.011 0.359-0.011 0.555 0 7.165 5.242 13.106 12.101 14.196l0.082 0.011c94.672 15.65 137.081 112.427 138.858 116.504l0.464 0.85c3.057 4.521 4.879 10.095 4.879 16.094 0 3.226-0.527 6.329-1.5 9.227l0.060-0.204c-5.642 12.578-25.619 19.070-38.642 23.455-3.901 1.027-7.237 2.228-10.433 3.682l0.406-0.165c-32.072 12.597-36.42 27.049-34.777 36.883 4.798 13.517 17.477 23.023 32.376 23.023 0.519 0 1.034-0.012 1.547-0.034l-0.073 0.003c0.012 0 0.026 0 0.040 0 3.989 0 7.793-0.788 11.266-2.216l-0.197 0.072c9.29-4.894 20.206-8.033 31.788-8.685l0.208-0.009c0.28-0.010 0.609-0.016 0.94-0.016 4.598 0 8.931 1.135 12.734 3.141l-0.149-0.072-1.333 16.481c-2.84 47.123-6.53 105.8 8.907 140.172 28.671 65.286 92.76 110.055 167.304 110.055 1.024 0 2.046-0.008 3.065-0.025l-0.154 0.002 12.133 0.425h1.739z" />
<glyph unicode="&#xe910;" d="M57.962 960h908.075c32.012 0 57.962-25.951 57.962-57.962v-908.075c0-32.012-25.951-57.962-57.962-57.962h-908.075c-32.012 0-57.962 25.951-57.962 57.962v908.075c0 32.012 25.951 57.962 57.962 57.962z" />
<glyph unicode="&#xe911;" d="M515.072 727.668c31.57 0.483 62.908 0.251 94.227 0.483 1.051-39.155 16.937-74.406 42.216-100.508l-0.039 0.040c27.209-24.514 62.617-40.403 101.655-43.114l0.532-0.030v-97.125c-36.881 0.921-71.549 9.44-102.806 24.043l1.585-0.665c-15.12 7.268-27.914 14.73-40.058 23.068l1.011-0.656c-0.232-70.366 0.232-140.732-0.483-210.867-1.985-35.733-13.869-68.34-32.929-95.554l0.393 0.592c-31.869-45.607-83.48-75.523-142.167-77.277l-0.266-0.006c-2.372-0.114-5.151-0.18-7.946-0.18-33.374 0-64.576 9.299-91.157 25.447l0.78-0.44c-48.37 29.095-81.739 78.888-87.899 136.808l-0.069 0.794c-0.483 12.056-0.715 24.093-0.232 35.917 9.443 92.164 86.661 163.454 180.53 163.454 10.544 0 20.879-0.9 30.931-2.626l-1.077 0.153c0.483-35.666-0.966-71.332-0.966-106.998-8.153 2.953-17.562 4.661-27.37 4.661-36.019 0-66.659-23.029-78.001-55.166l-0.178-0.579c-2.568-8.237-4.048-17.708-4.048-27.524 0-3.972 0.242-7.888 0.713-11.733l-0.046 0.462c6.398-39.467 40.23-69.236 81.015-69.236 1.175 0 2.343 0.025 3.506 0.074l-0.166-0.006c28.164 0.864 52.617 15.982 66.476 38.353l0.2 0.346c5.153 7.178 8.675 15.859 9.845 25.271l0.028 0.271c2.415 43.143 1.449 86.035 1.681 129.179 0.232 97.125-0.232 194 0.483 290.874z" />
<glyph unicode="&#xe912;" horiz-adv-x="6699" d="M721.212-15.402c-150.189-17.279-325.537-27.73-503.1-28.84l-1.627-0.008c-2.95-0.147-6.405-0.23-9.881-0.23-57.252 0-109.204 22.69-147.355 59.567l0.060-0.058c-36.828 38.287-59.51 90.412-59.51 147.836 0 3.253 0.073 6.489 0.217 9.706l-0.016-0.457v345.756c-0.24 3.935-0.377 8.534-0.377 13.166 0 60.602 23.445 115.729 61.76 156.805l-0.125-0.136c40.701 38.195 95.621 61.658 156.022 61.658 4.752 0 9.471-0.145 14.151-0.432l-0.643 0.031h288.363c4.038 0.255 8.756 0.4 13.509 0.4 60.4 0 115.321-23.463 156.144-61.771l-0.122 0.114c38.166-41.122 61.585-96.397 61.585-157.141 0-4.326-0.119-8.624-0.353-12.892l0.026 0.594v-266.757h-497.515v-57.819c-0.008-0.33-0.012-0.718-0.012-1.108 0-27.277 22.112-49.389 49.389-49.389 0.39 0 0.778 0.005 1.166 0.013l-0.058-0.001q142.66 0 418.181 21.636zM310.121 568.872c-2.219 0.342-4.779 0.538-7.385 0.538-28.151 0-50.972-22.821-50.972-50.972 0-2.606 0.196-5.166 0.573-7.666l-0.035 0.281v-79.12h245.121v79.12c0.342 2.219 0.538 4.779 0.538 7.385 0 28.151-22.821 50.972-50.972 50.972-2.606 0-5.166-0.196-7.666-0.573l0.281 0.035z" />
<glyph unicode="&#xe913;" horiz-adv-x="6699" d="M1377.364 734.537h266.757l-288.485-764.363h-288.668l-288.181 764.363h266.879l165.879-519.151z" />
<glyph unicode="&#xe914;" horiz-adv-x="6699" d="M2393.969-15.432c-150.192-17.282-325.541-27.732-503.105-28.841l-1.622-0.008c-3.882-0.264-8.414-0.414-12.982-0.414-112.604 0-203.887 91.283-203.887 203.887 0 4.567 0.15 9.1 0.446 13.592l-0.032-0.611v345.817c-0.234 3.88-0.368 8.415-0.368 12.982 0 60.55 23.482 115.615 61.835 156.586l-0.119-0.128c40.699 38.188 95.615 61.646 156.009 61.646 4.682 0 9.331-0.141 13.943-0.419l-0.634 0.031h288.485c4.042 0.256 8.766 0.402 13.524 0.402 60.367 0 115.253-23.465 156.035-61.771l-0.12 0.112c38.164-41.173 61.577-96.49 61.577-157.276 0-4.279-0.116-8.53-0.345-12.752l0.025 0.588v-266.757h-497.332v-57.819c-0.005-0.267-0.008-0.582-0.008-0.897 0-27.277 22.112-49.389 49.389-49.389 0.42 0 0.839 0.005 1.257 0.016l-0.062-0.001q142.66 0 418.181 21.636zM1982.999 568.841c-2.187 0.332-4.71 0.521-7.277 0.521-28.201 0-51.063-22.862-51.063-51.063 0-2.567 0.189-5.090 0.555-7.556l-0.034 0.279v-79.12h245.212v79.12c0.339 2.208 0.532 4.756 0.532 7.349 0 28.168-22.834 51.002-51.002 51.002-2.593 0-5.14-0.193-7.629-0.567l0.28 0.035z" />
<glyph unicode="&#xe915;" horiz-adv-x="6699" d="M2978.029 539.901c-62.276-1.409-121.615-11.856-177.44-30.077l4.349 1.228v-540.879h-252.303v764.363h223.485l14.424-72.121c39.978 27.151 86.133 49.519 135.43 64.726l3.67 0.975c35.713 11.857 76.926 19.373 119.677 20.825l0.738 0.020h64.909c3.882 0.264 8.414 0.414 12.982 0.414 112.604 0 203.887-91.283 203.887-203.887 0-4.567-0.15-9.1-0.446-13.592l0.032 0.611v-562.546h-252.424v519.456c0.008 0.33 0.012 0.718 0.012 1.108 0 27.277-22.112 49.389-49.389 49.389-0.39 0-0.778-0.005-1.166-0.013l0.058 0.001z" />
<glyph unicode="&#xe916;" horiz-adv-x="6699" d="M3994.847-29.826c-82.050-9.050-177.358-14.286-273.86-14.424h-0.2c-3.882-0.264-8.414-0.414-12.982-0.414-112.604 0-203.887 91.283-203.887 203.887 0 4.567 0.15 9.1 0.446 13.592l-0.032-0.611v367.727h-86.059v194.758h86.454l28.544 173.091h223.576v-173.091h180.303v-194.758h-180.303v-331.697c-0.008-0.33-0.012-0.718-0.012-1.108 0-27.277 22.112-49.389 49.389-49.389 0.39 0 0.778 0.005 1.166 0.013l-0.058-0.001h187.698z" />
<glyph unicode="&#xe917;" horiz-adv-x="6699" d="M4066.847 172.113q292.837-21.636 461.576-21.636c0.33-0.008 0.718-0.012 1.108-0.012 27.277 0 49.389 22.112 49.389 49.389 0 0.39-0.005 0.778-0.013 1.166l0.001-0.058v50.485h-310.121c-3.882-0.264-8.414-0.414-12.982-0.414-112.604 0-203.887 91.283-203.887 203.887 0 4.567 0.15 9.1 0.446 13.592l-0.032-0.611v50.394c-0.264 3.882-0.414 8.414-0.414 12.982 0 112.604 91.283 203.887 203.887 203.887 4.567 0 9.1-0.15 13.592-0.446l-0.611 0.032h490.303v-187.698h-403.757c-27.882 0-50.485-22.603-50.485-50.485s22.603-50.485 50.485-50.485v0h259.636c3.886 0.265 8.424 0.415 12.996 0.415 112.385 0 203.491-91.106 203.491-203.491 0-4.643-0.155-9.25-0.462-13.815l0.033 0.619v-57.819c0.264-3.882 0.414-8.414 0.414-12.982 0-112.604-91.283-203.887-203.887-203.887-4.567 0-9.1 0.15-13.592 0.446l0.611-0.032q-255.376 0-548.121 28.848z" />
<glyph unicode="&#xe918;" horiz-adv-x="6699" d="M5473.181-64q-240.769 0-533.484 28.848v194.819q318.612-21.636 475.878-21.636c1.534-0.125 3.322-0.196 5.126-0.196 37.109 0 67.191 30.083 67.191 67.191 0 1.804-0.071 3.591-0.211 5.359l0.015-0.234v72.121c0.489 3.248 0.768 6.996 0.768 10.81 0 42.252-34.252 76.503-76.503 76.503-3.813 0-7.562-0.279-11.226-0.818l0.416 0.050h-418.577v591.181h692.242v-201.939h-432.727v-187.576h231.092q141.382 0 207.478-64.118t66.4-195.427v-100.757q0-141.382-66.4-207.478t-207.478-66.705z" />
<glyph unicode="&#xe919;" horiz-adv-x="6699" d="M6338.24 152.364h-533.484v202.061l345.969 605.575h288.485l-345.786-605.575h245.091v216.059h259.545v-216.059h100.97v-202.061h-101.244v-201.939h-259.545z" />
<glyph unicode="&#xe91a;" glyph-name="menu" horiz-adv-x="1536" d="M0-64v170.667h1536v-170.667zM0 362.667v170.667h1536v-170.667zM0 960h1536v-170.667h-1536z" />
<glyph unicode="&#xe91b;" horiz-adv-x="878" d="M867.947-48.269l-439.98 190.398-417.632-190.073v997.609h857.612v-997.934z" />
<glyph unicode="&#xe91c;" horiz-adv-x="878" d="M20.67 939.33v-971.215l407.191 185.321 429.751-185.971v971.865h-836.942zM0 960h878.282v-1024.003l-450.209 194.825-428.072-194.825v1024.003z" />
<glyph unicode="&#xe91d;" glyph-name="location" horiz-adv-x="741" d="M370.378 960c-203.92-0.152-369.296-164.955-370.378-368.641v-0.103c0-146.844 82.321-269.713 142.757-359.344l11.034-16.346c66.015-95.271 129.4-177.244 196.61-255.85l-3.589 4.299 23.929-28.016 23.929 28.016c63.605 74.302 126.989 156.275 186.271 241.321l17.785 26.938c60.072 89.632 142.394 212.228 142.394 359.072-1.134 203.844-166.643 368.653-370.645 368.653-0.034 0-0.067 0-0.101 0h0.005zM370.378 425.524c-113.925 0-206.28 92.355-206.28 206.28s92.355 206.28 206.28 206.28c113.925 0 206.28-92.355 206.28-206.28v0c0-113.925-92.355-206.28-206.28-206.28v0z" />
<glyph unicode="&#xe91e;" glyph-name="play-yellow" d="M512 29.086v0c-231.36 0-418.914 187.554-418.914 418.914v0c0 231.36 187.554 418.914 418.914 418.914s418.914-187.554 418.914-418.914c0-231.36-187.554-418.914-418.914-418.914zM512-64c282.77 0 512 229.23 512 512s-229.23 512-512 512c-282.77 0-512-229.23-512-512v0c0-282.77 229.23-512 512-512v0zM698.197 448l-279.284-201.557v403.090z" />
<glyph unicode="&#xe91f;" glyph-name="play-white" d="M512 29.098h0.001c-0.005 0-0.009 0-0.014 0-231.353 0-418.902 187.549-418.902 418.902v0c0 231.353 187.549 418.902 418.902 418.902s418.902-187.549 418.902-418.902c0-231.348-187.541-418.894-418.888-418.902zM512-63.987c282.77 0 512 229.23 512 512s-229.23 512-512 512c-282.77 0-512-229.23-512-512 0-0.005 0-0.009 0-0.014v0.001c0-0.004 0-0.009 0-0.013 0-282.762 229.224-511.987 511.987-511.987 0.005 0 0.009 0 0.014 0h-0.001zM698.17 448.013l-279.268-201.548v403.083z" />
<glyph unicode="&#xe920;" glyph-name="shield" horiz-adv-x="918" d="M284.441 858.236q-93.633-25.179-186.021-54.751c-11.28-3.564-19.656-13.101-21.484-24.807l-0.022-0.175c-6.546-37.427-10.289-80.525-10.289-124.497 0-175.342 59.506-336.786 159.425-465.238l-1.277 1.707c42.903-54.97 92.287-102.145 147.667-141.422l2.159-1.454c16.805-11.942 35.972-23.314 56.058-33.094l2.43-1.068c5.241-2.561 11.603-5.097 18.164-7.187l1.048-0.288c1.789-0.609 3.993-1.177 6.251-1.592l0.306-0.047c2.496 0.382 4.706 0.93 6.834 1.656l-0.277-0.082c7.677 2.491 14.034 5.068 20.173 8.023l-0.961-0.417c22.512 10.836 41.68 22.209 59.759 35.016l-1.271-0.855c57.588 40.73 107.015 87.907 148.804 141.345l1.153 1.532c98.741 126.761 158.312 288.262 158.312 463.677 0 43.897-3.73 86.922-10.892 128.776l0.635-4.49c-1.851 11.881-10.227 21.418-21.287 24.922l-0.22 0.060c-42.751 13.638-114.812 35.867-186.021 54.751-50.654 15.831-109.984 27.68-171.128 33.255l-3.418 0.252c-64.577-5.813-123.932-17.662-180.818-35.148l6.207 1.642zM266.934 924.133c56.035 17.534 121.403 30.257 188.837 35.659l3.216 0.207c70.652-5.605 136.023-18.306 198.544-37.517l-6.49 1.716q95.273-25.572 189.234-55.669c36.166-11.672 62.9-42.549 68.391-80.311l0.064-0.536c6.934-40.227 10.898-86.559 10.898-133.816 0-191.213-64.892-367.269-173.854-507.348l1.393 1.861c-47.259-60.492-101.682-112.393-162.715-155.567l-2.389-1.604c-19.769-14.029-42.314-27.349-65.951-38.764l-2.832-1.233c-15.781-8.303-34.269-13.801-53.873-15.313l-0.484-0.030c-20.089 1.542-38.576 7.041-55.138 15.716l0.78-0.372c-26.463 12.632-49.009 25.953-70.256 40.987l1.473-0.989c-63.349 44.841-117.708 96.804-163.632 155.668l-1.276 1.698c-107.615 138.189-172.538 314.239-172.538 505.453 0 47.269 3.968 93.612 11.588 138.714l-0.679-4.863c5.61 38.225 32.331 69.021 67.752 80.455l0.703 0.196q93.961 30.031 189.234 55.669zM458.987 840.532c109.17-15.168 207.17-39.558 300.858-73.023l-10.45 3.257c23.654-7.402 41.182-27.496 44.743-52.11l0.041-0.345c55.537-438.529-281.949-645.27-335.192-645.27z" />
<glyph unicode="&#xe921;" glyph-name="ticket" horiz-adv-x="1365" d="M1365.482 277.259v-256.298c-0.622-46.876-38.457-84.712-85.274-85.333l-0.059-0.001h-768.075v42.704c-0.983 22.805-19.709 40.92-42.667 40.92s-41.684-18.116-42.664-40.832l-0.003-0.089v-42.704h-341.333c-0.105 0-0.23-0.001-0.354-0.001-23.291 0-44.314 9.713-59.239 25.31l-0.029 0.030c-15.627 14.953-25.34 35.976-25.34 59.267 0 0.125 0 0.249 0.001 0.374v-0.019 256.671c0.634-0.009 1.382-0.014 2.132-0.014 46.341 0 88.208 19.155 118.115 49.98l0.040 0.041c30.912 29.86 50.105 71.68 50.105 117.983 0 0.967-0.008 1.933-0.025 2.896l0.002-0.145c0.012 0.734 0.019 1.601 0.019 2.469 0 46.353-19.157 88.232-49.985 118.151l-0.041 0.040c-29.906 30.826-71.717 49.956-117.996 49.956-0.963 0-1.923-0.008-2.882-0.025l0.144 0.002v256.075c0 0.105-0.001 0.23-0.001 0.354 0 23.291 9.713 44.314 25.31 59.239l0.030 0.029c14.953 15.627 35.976 25.34 59.267 25.34 0.125 0 0.249 0 0.374-0.001h341.314v-42.331c0-0.062-0.001-0.135-0.001-0.209 0-11.636 4.857-22.137 12.655-29.587l0.016-0.015c7.59-7.715 18.142-12.495 29.811-12.495s22.221 4.78 29.805 12.489l0.006 0.006c7.814 7.488 12.67 18.010 12.67 29.665 0 0.051 0 0.102 0 0.153v-0.008 42.704h768.745c0.105 0 0.23 0.001 0.354 0.001 23.291 0 44.314-9.713 59.239-25.31l0.029-0.030c15.627-14.953 25.34-35.976 25.34-59.267 0-0.125 0-0.249-0.001-0.374v0.019-256.373c-94.24-0.042-170.624-76.427-170.667-170.663v-0.004c0.042-94.24 76.427-170.624 170.663-170.667h0.004zM512.075 746.704c-0.983 22.805-19.709 40.92-42.667 40.92s-41.684-18.116-42.664-40.832l-0.003-0.089v-85.408c0.983-22.805 19.709-40.92 42.667-40.92s41.684 18.116 42.664 40.832l0.003 0.089zM512.075 490.704c-0.983 22.805-19.709 40.92-42.667 40.92s-41.684-18.116-42.664-40.832l-0.003-0.089v-85.408c0.983-22.805 19.709-40.92 42.667-40.92s41.684 18.116 42.664 40.832l0.003 0.089zM512.075 234.704c-0.983 22.805-19.709 40.92-42.667 40.92s-41.684-18.116-42.664-40.832l-0.003-0.089v-85.333c0.983-22.805 19.709-40.92 42.667-40.92s41.684 18.116 42.664 40.832l0.003 0.089z" />
</font>
</defs>
</svg>
